<svg width="166" height="164" viewBox="0 0 166 164" fill="none" xmlns="http://www.w3.org/2000/svg">
<g filter="url(#filter0_d_66_59)">
<path d="M82.6383 156C126.069 156 161.277 121.078 161.277 78C161.277 34.9218 126.069 0 82.6383 0C39.2076 0 4 34.9218 4 78C4 121.078 39.2076 156 82.6383 156Z" fill="#F2F2F2"/>
<path d="M154.305 78.9757C154.306 88.2983 152.455 97.5297 148.859 106.143C145.262 114.756 139.99 122.582 133.344 129.174C126.698 135.766 118.808 140.995 110.125 144.562C101.441 148.13 92.1342 149.965 82.7353 149.965C74.3581 149.96 66.0459 148.507 58.1719 145.67C45.8603 141.221 35.0152 133.508 26.8172 123.369C18.6192 113.23 13.3826 101.055 11.6776 88.1683C9.97252 75.282 11.8643 62.1787 17.147 50.285C22.4298 38.3913 30.9009 28.163 41.6382 20.7138C52.3755 13.2646 64.9674 8.87991 78.043 8.03717C91.1185 7.19443 104.177 9.92592 115.796 15.9342C127.414 21.9426 137.149 30.9975 143.939 42.1131C150.729 53.2287 154.314 65.979 154.305 78.9757Z" fill="white"/>
<path d="M58.7817 86.764C70.9814 86.764 80.8711 76.9545 80.8711 64.8539C80.8711 52.7533 70.9814 42.9438 58.7817 42.9438C46.5821 42.9438 36.6923 52.7533 36.6923 64.8539C36.6923 76.9545 46.5821 86.764 58.7817 86.764Z" fill="#E4E4E4"/>
<path d="M151.513 59.2829C146.726 61.5674 141.268 62.0641 136.142 60.6819C131.015 59.2998 126.562 56.1314 123.6 51.7574C120.637 47.3834 119.363 42.0968 120.01 36.8666C120.658 31.6364 123.184 26.8129 127.126 23.2802C138.841 32.4658 147.367 45.0537 151.513 59.2829Z" fill="#F2F2F2"/>
<path d="M106.592 110.526C110.984 110.526 114.544 106.995 114.544 102.639C114.544 98.2824 110.984 94.751 106.592 94.751C102.2 94.751 98.6398 98.2824 98.6398 102.639C98.6398 106.995 102.2 110.526 106.592 110.526Z" fill="#E4E4E4"/>
<path d="M73.8996 147.335C73.899 148.028 73.8069 148.717 73.6257 149.386C68.3492 148.731 63.1648 147.485 58.1719 145.67C58.5866 143.767 59.6962 142.083 61.2872 140.943C62.8782 139.802 64.8382 139.286 66.7902 139.492C68.7421 139.699 70.548 140.614 71.8605 142.062C73.173 143.51 73.8992 145.388 73.8996 147.335Z" fill="#F2F2F2"/>
<path d="M27.0701 75.4701C27.0697 79.4718 25.5362 83.3238 22.7802 86.2463C20.0241 89.1687 16.2514 90.9431 12.226 91.2103C10.4039 80.7925 10.9351 70.1035 13.7811 59.9139C17.4938 60.5279 20.8666 62.428 23.2998 65.2764C25.7331 68.1247 27.069 71.7367 27.0701 75.4701Z" fill="#F2F2F2"/>
<path d="M106.35 76.4122C106.35 76.4122 105.042 80.0187 103 85.2005C102.34 86.8837 101.601 88.7314 100.804 90.6763C99.6939 93.3845 98.471 96.2815 97.1904 99.1785C96.4025 100.962 95.5934 102.742 94.7751 104.482C90.3765 113.807 85.692 121.886 82.6227 121.999C75.7267 122.252 60.9551 81.3377 59.3429 76.8168C59.2486 76.5525 59.2 76.4122 59.2 76.4122H106.35Z" fill="#DDBEA9"/>
<path opacity="0.1" d="M103 85.2005C102.34 86.8837 101.601 88.7314 100.804 90.6763L82.5374 76.4122H91.7452L103 85.2005Z" fill="black"/>
<path opacity="0.1" d="M97.1904 99.1786C96.4025 100.962 95.5934 102.742 94.7751 104.482L59.3429 76.8168C59.2486 76.5525 59.2 76.4122 59.2 76.4122H68.0337L97.1904 99.1786Z" fill="black"/>
<path d="M83.5923 40.1752C81.4309 41.6935 78.013 41.1194 75.9357 42.7274C74.5148 43.8273 74.1358 45.7082 74.5235 47.345C74.9112 48.9818 75.9415 50.4342 76.978 51.8316C77.6933 52.7959 78.4354 53.7679 79.4406 54.5014C80.8459 55.5269 82.6495 56.0042 84.4174 56.3877C88.2672 57.2224 92.1985 57.7277 96.1573 57.8967C97.9226 57.972 99.9219 57.8967 101.111 56.7375C101.804 56.0625 102.083 55.1374 102.286 54.2427C102.603 52.8431 102.779 51.3363 102.123 50.0327C101.584 48.9612 100.546 48.158 99.4952 47.4449C96.199 45.2083 92.3167 43.3565 90.3049 40.1373C89.5053 38.8576 89.0121 37.3748 87.8001 36.382C86.2203 35.0879 82.7051 34.5588 80.8449 35.4232C81.1322 36.0042 84.8881 39.2651 83.5923 40.1752Z" fill="#DEAAFF"/>
<path d="M65.429 55.2652C64.7882 57.2359 64.1978 59.3209 64.7374 61.3153C65.4489 63.9447 68.0488 65.914 70.9007 66.8712C73.7527 67.8284 76.8629 67.9401 79.9102 68.0411L95.865 68.5695C97.8702 68.6359 99.9139 68.7088 101.798 69.32C103.351 69.8237 105.197 70.6533 106.492 69.741C107.08 69.3272 107.343 68.6573 107.552 68.0183C108.23 65.9392 108.609 63.6562 107.697 61.6486C106.652 59.3481 104.075 57.8364 101.4 57.1139C98.7244 56.3913 95.8908 56.3209 93.1109 56.0481C90.291 55.7711 87.5027 55.2817 84.7765 54.5851C82.4973 54.0026 80.1882 53.234 78.5023 51.7545C77.5904 50.9541 76.8999 49.9781 76.0403 49.1334C71.1165 44.2946 66.6401 51.5414 65.429 55.2652Z" fill="#DEAAFF"/>
<path d="M61.923 64.3186C60.3712 64.935 59.0252 65.8963 58.0153 67.1094C57.0054 68.3225 56.3659 69.7463 56.1587 71.2429C55.9515 72.7395 56.1837 74.2582 56.8327 75.6519C57.4817 77.0456 58.5256 78.267 59.8632 79.1979C62.2926 80.8886 65.4719 81.4766 68.5521 81.6734C71.5599 81.8656 74.5807 81.7334 77.5926 81.6011L104.241 80.4307C105.803 80.362 107.571 80.2026 108.525 79.1033C109.236 78.2829 109.278 77.1513 109.108 76.1273C108.497 72.4436 105.36 69.1824 101.355 68.066C99.8438 67.6449 98.2533 67.5117 96.6766 67.3809L85.2531 66.4331C83.7147 66.3054 82.1674 66.1764 80.6764 65.817C76.1589 64.7281 72.1224 61.5489 67.4712 62.0196C64.3158 62.339 61.7178 64.2979 59.4256 66.2472" fill="#DEAAFF"/>
<path opacity="0.1" d="M76.843 48.359C76.843 48.359 80.5715 54.3283 99.6964 56.7385L76.843 48.359Z" fill="black"/>
<path opacity="0.1" d="M66.264 63.9936C66.264 63.9936 73.1926 70.2082 101.787 70.2082L66.264 63.9936Z" fill="black"/>
<path d="M82.3185 45.3918C83.3265 45.3918 84.1436 45.1503 84.1436 44.8523C84.1436 44.5544 83.3265 44.3128 82.3185 44.3128C81.3104 44.3128 80.4933 44.5544 80.4933 44.8523C80.4933 45.1503 81.3104 45.3918 82.3185 45.3918Z" fill="#7D1AAB"/>
<path d="M88.4022 48.8985C89.4102 48.8985 90.2274 48.6569 90.2274 48.359C90.2274 48.061 89.4102 47.8195 88.4022 47.8195C87.3942 47.8195 86.5771 48.061 86.5771 48.359C86.5771 48.6569 87.3942 48.8985 88.4022 48.8985Z" fill="#7D1AAB"/>
<path d="M95.3986 52.6749C96.4066 52.6749 97.2238 52.4333 97.2238 52.1354C97.2238 51.8374 96.4066 51.5959 95.3986 51.5959C94.3906 51.5959 93.5735 51.8374 93.5735 52.1354C93.5735 52.4333 94.3906 52.6749 95.3986 52.6749Z" fill="#7D1AAB"/>
<path d="M71.0633 54.2933C72.0713 54.2933 72.8885 54.0518 72.8885 53.7538C72.8885 53.4559 72.0713 53.2144 71.0633 53.2144C70.0553 53.2144 69.2382 53.4559 69.2382 53.7538C69.2382 54.0518 70.0553 54.2933 71.0633 54.2933Z" fill="#7D1AAB"/>
<path d="M86.5771 59.4185C87.5851 59.4185 88.4022 59.1769 88.4022 58.879C88.4022 58.581 87.5851 58.3395 86.5771 58.3395C85.569 58.3395 84.7519 58.581 84.7519 58.879C84.7519 59.1769 85.569 59.4185 86.5771 59.4185Z" fill="#7D1AAB"/>
<path d="M64.6753 69.9384C65.6833 69.9384 66.5004 69.6969 66.5004 69.3989C66.5004 69.101 65.6833 68.8594 64.6753 68.8594C63.6672 68.8594 62.8501 69.101 62.8501 69.3989C62.8501 69.6969 63.6672 69.9384 64.6753 69.9384Z" fill="#7D1AAB"/>
<path d="M76.2346 59.9579C77.2426 59.9579 78.0597 59.7164 78.0597 59.4185C78.0597 59.1205 77.2426 58.879 76.2346 58.879C75.2266 58.879 74.4094 59.1205 74.4094 59.4185C74.4094 59.7164 75.2266 59.9579 76.2346 59.9579Z" fill="#7D1AAB"/>
<path d="M69.2382 73.9846C70.2462 73.9846 71.0634 73.7431 71.0634 73.4451C71.0634 73.1471 70.2462 72.9056 69.2382 72.9056C68.2302 72.9056 67.4131 73.1471 67.4131 73.4451C67.4131 73.7431 68.2302 73.9846 69.2382 73.9846Z" fill="#7D1AAB"/>
<path d="M81.1016 71.5569C82.1096 71.5569 82.9268 71.3153 82.9268 71.0174C82.9268 70.7194 82.1096 70.4779 81.1016 70.4779C80.0936 70.4779 79.2765 70.7194 79.2765 71.0174C79.2765 71.3153 80.0936 71.5569 81.1016 71.5569Z" fill="#7D1AAB"/>
<path d="M88.2501 84.5045C89.3421 84.5045 90.2274 82.8742 90.2274 80.863C90.2274 78.8519 89.3421 77.2215 88.2501 77.2215C87.1581 77.2215 86.2729 78.8519 86.2729 80.863C86.2729 82.8742 87.1581 84.5045 88.2501 84.5045Z" fill="#DEAAFF"/>
<path d="M90.6837 85.8533C91.7757 85.8533 92.6609 84.2229 92.6609 82.2117C92.6609 80.2006 91.7757 78.5702 90.6837 78.5702C89.5917 78.5702 88.7064 80.2006 88.7064 82.2117C88.7064 84.2229 89.5917 85.8533 90.6837 85.8533Z" fill="#DEAAFF"/>
</g>
<defs>
<filter id="filter0_d_66_59" x="0" y="0" width="165.277" height="164" filterUnits="userSpaceOnUse" color-interpolation-filters="sRGB">
<feFlood flood-opacity="0" result="BackgroundImageFix"/>
<feColorMatrix in="SourceAlpha" type="matrix" values="0 0 0 0 0 0 0 0 0 0 0 0 0 0 0 0 0 0 127 0" result="hardAlpha"/>
<feOffset dy="4"/>
<feGaussianBlur stdDeviation="2"/>
<feComposite in2="hardAlpha" operator="out"/>
<feColorMatrix type="matrix" values="0 0 0 0 0 0 0 0 0 0 0 0 0 0 0 0 0 0 0.25 0"/>
<feBlend mode="normal" in2="BackgroundImageFix" result="effect1_dropShadow_66_59"/>
<feBlend mode="normal" in="SourceGraphic" in2="effect1_dropShadow_66_59" result="shape"/>
</filter>
</defs>
</svg>
